/* XPM */
static char * C:\Users\Luis Fran\OneDrive\Escritorio\img\cuerpo_i2_xpm[] = {
"19 17 5 1",
" 	c None",
".	c #080000",
"+	c #B97371",
"@	c #CF9C9B",
"#	c #E3C6C5",
"                   ",
"                   ",
"     .......       ",
"    ..........     ",
"   ..+@@@@@+...    ",
"  ..+@@@@@@@@+..   ",
"  ..@@@@@@@##@@..  ",
"  ..@@@@@@@###@..  ",
"  ..@#####@.##@..  ",
"  ..@@@####@.#...  ",
"  ...+.####@....   ",
"   ...+.##@+...    ",
"    ..++.@+...     ",
"     .........     ",
"      .......      ",
"                   ",
"                   "};
