/* XPM */
static char * C:\Users\Luis Fran\OneDrive\Escritorio\img\cuerpo_d5_xpm[] = {
"21 17 5 1",
" 	c None",
".	c #080000",
"+	c #CF9C9B",
"@	c #B97371",
"#	c #E3C6C5",
"                     ",
"                     ",
"     ..........      ",
"   .............     ",
"  ...+@@@+++++@..    ",
"  ..+++++++++++@..   ",
"  ..++###+++++++..   ",
"  ...###++++++++..   ",
"   .....++#####+..   ",
"    ....@+######...  ",
"       ..@+++####..  ",
"      ..@...@+###..  ",
"     ..@@@@..@++@..  ",
"     ..............  ",
"      ..... ......   ",
"                     ",
"                     "};
