/* XPM */
static char * C:\Users\Luis Fran\OneDrive\Escritorio\img\cuerpo_e2_xpm[] = {
"20 15 5 1",
" 	c None",
".	c #080000",
"+	c #B97371",
"@	c #CF9C9B",
"#	c #E3C6C5",
"                    ",
"      ........      ",
"    ............    ",
"   ...+@@@@@@+...   ",
"  ..@+@@@@@@@@+@..  ",
" ..@##@@@@@@@@##@.. ",
" ..@##@@@@@@@@.#@.. ",
" ..@#.@######@.+@.. ",
"  ....########@...  ",
"   ...##@..@##@..   ",
"    ..@#@..###+..   ",
"    ...++.......    ",
"     ..........     ",
"      ...           ",
"                    "};
