/* XPM */
static char * C:\Users\Luis Fran\OneDrive\Escritorio\img\dado_xpm[] = {
"32 32 6 1",
" 	c  #734136",
".	c #080000",
"+	c #5E1823",
"@	c #7A202E",
"#	c #431119",
"$	c #AF3648",
"                                ",
"                                ",
"                                ",
"                                ",
"                                ",
"              .....             ",
"            ........            ",
"           ...+@@@..            ",
"          ..@@@@...             ",
"        ...+@.@@.....           ",
"       ...+@@@@@@.#...          ",
"      ..###+@@@+#.###..         ",
"      ..@$@####...####..        ",
"       ..$$$$$@#..####..        ",
"       ..@$.$$$@#..##..         ",
"        ..$$$$$$#+....          ",
"        ..@$$.$$@#+..           ",
"         ..$$$$$$#+@..          ",
"         ..@$$$.$@#+..          ",
"         ..@$$$$$$#..           ",
"          ..@@$$$$#..           ",
"          .....@@@@..           ",
"           .........            ",
"               ....             ",
"                                ",
"                                ",
"                                ",
"                                ",
"                                ",
"                                ",
"                                ",
"                                "};
