/* XPM */
static char * C:\Users\Luis Fran\OneDrive\Escritorio\img\damage3_xpm[] = {
"40 29 9 1",
" 	c None",
".	c #080000",
"+	c #CF9C9B",
"@	c #E3C6C5",
"#	c #68B2B4",
"$	c #9ACCCD",
"%	c #B97371",
"&	c #FFFFFF",
"*	c #EFE0DF",
"                                        ",
"                      ......            ",
"                   ............         ",
"                 ......++++......       ",
"                ....+@@+.+@@@+....      ",
"               ...+@@@#++.+@@@@+...     ",
"             ....+@@@$$.++.@@@@@+..     ",
"           .....+@@@@$$..@+@@@@@@+..    ",
"         .......@@@@$$$..@@@@@@@@@...   ",
"      .....++..+@@@@$$#..@@@@@@@@@+..   ",
"     .....++%..@@@@@$$@..@@@@@@@@@@..   ",
"    ...%..@@...@@@@@#$@.+@@@@@@@@@@+..  ",
"    ..%%..@@..+@@@@@...+@@@@@@@@@@@+..  ",
"   .......@@..+@@@@@.&..+@@@@@@@@@@@..  ",
"  ..+@*+..@@..+@@@@@.&...@@@@@@@@@@@..  ",
"  ..@@@@..@@..+@@@@@.&...@@@@@@@@@@@..  ",
"  ..@@@+..++..%+@@@@.&...@@@@@@@@@@@..  ",
"  ..++++%..%...+@@@@.&..+@@@@@@@@@@+..  ",
"  .............+++@@...++@@@@@@@@++..   ",
"   ............%+++++++%%+@@@@@+++%..   ",
"   ..%++..+++...+++++++..+++++++++...   ",
"   ..%++..%%%%..%+++++$..+%.+++++%..    ",
"    ..%%..%%%%%..%+++$$.%+.%++++%..     ",
"     .......%%%%..%+$$$.%.%++++%...     ",
"      ..............$$$#%++++%....      ",
"            ...........$$+%......       ",
"                   ............         ",
"                     .......            ",
"                                        "};
