/* XPM */
static char * C:\Users\Luis Fran\OneDrive\Escritorio\img\damge1_xpm[] = {
"34 36 9 1",
" 	c None",
".	c #080000",
"+	c #CF9C9B",
"@	c #E3C6C5",
"#	c #B97371",
"$	c #FFFFFF",
"%	c #9CC8CC",
"&	c #837F7F",
"*	c #9CC8CD",
"                                  ",
"             ........             ",
"           ............           ",
"         ....++++++++....         ",
"        ...+@@@@@@@@@@+...        ",
"       ..+@@@@+@@@@+@@@@+..       ",
"      ..+@@@@+#@@@@#+@@@@+..      ",
"     ..++++###+@@@@+###++++..     ",
"     ..#....++@@@@@@++....#..     ",
"    ..+.$$...@@@@@@@@.$$...+..    ",
"    ..@.$$...@@@@@@@@.$$...@..    ",
"   ..+@......@+....+@......@+..   ",
"   ..+@......@.$$$$.@......@+..   ",
"   ..+@+%%%++@.&..&.@++%%%+@+..   ",
"   ..+++%%%@@@......@@@%%%+++..   ",
"   ..#++%%%@@@......@@@***++#..   ",
"    ......%@@@......@@@*......    ",
"    .......+@@..$$..@@+.......    ",
"   ...+@+...@@+....+@@...+@+...   ",
"   ..+@@@+..@@@@@@@@@@..+@@@+..   ",
"   ..@@@@@..@@@@++@@@@..@@@@@..   ",
"   ..+@@@@..@@@@@@@@@@..@@@@+..   ",
"   ..#+@@+..+@@@@@@@@+..+@@+#..   ",
"    ..#++##..#++++++#..##++#..    ",
"     ..####............####..     ",
"      ...##............##...      ",
"       ......++++++++......       ",
"         ....+@@@@@@+....         ",
"           ..@@@@@@@@..           ",
"           ..@@+..+@@..           ",
"           ..@@@..+@@..           ",
"           ...@@..+@...           ",
"            ..........            ",
"             ...  ...             ",
"                                  ",
"                                  "};
