/* XPM */
static char * C:\Users\Luis Fran\OneDrive\Escritorio\img\exit_xpm[] = {
"32 32 8 1",
" 	c  #734136",
".	c #180000",
"+	c #210A0A",
"@	c #2A1110",
"#	c #300000",
"$	c #1F0000",
"%	c #510000",
"&	c #870600",
"                                ",
"                                ",
"                                ",
"                                ",
"                                ",
"                                ",
"                                ",
"              .                 ",
"      ..      .                 ",
"        ........           .    ",
"        .+@@@+...         .     ",
"       .+@@@@@.@@+.     ...     ",
"       .+@@@++.@@@+.+@@@..      ",
"       .#++++#$+@@@.@@@@+.      ",
"      ...####%$####$+@@@#.      ",
"   .+@+..$#%%$$####$#####$      ",
" ..+@@+.$$$$$$$#%%#$$####$      ",
"   +@@+.##$$$$$$##$$$$$$$$++.   ",
"    +++$###$$###$$$$$###$$+     ",
"     ++####$#######$#####       ",
"     +$#%%%$######%##%          ",
"        &&%#%###%%%             ",
"           #%%%%%               ",
"               &                ",
"               &                ",
"               &                ",
"                                ",
"                                ",
"                                ",
"                                ",
"                                ",
"                                "};
