/* XPM */
static char * C:\Users\Luis Fran\OneDrive\Escritorio\img\final3_xpm[] = {
"30 29 6 1",
" 	c None",
".	c #080000",
"+	c #CF9C9B",
"@	c #E3C6C5",
"#	c #FFFFFF",
"$	c #B97371",
"           ........           ",
"         ............         ",
"       ....++++++++....       ",
"      ...+@@@@@@@@@@+...      ",
"     ..+@@@@@@@@@@@@@@+..     ",
"    ..+@@@@@@@@@@@@@@@@+..    ",
"   ..+@@@@@@@@@@@@@@@@@@+..   ",
"   ..@@@@@@@@@@@@@@@@@@@@..   ",
"  ..+@@@@@@@@@@@@@@@@@@@@+..  ",
"  ..@@@@@@@@@@@@@@@@@@@@@@..  ",
" ..+@@@@@@@@@@@@@@@@@@@@@@+.. ",
" ..+@+....+@@@@@@@@+....+@+.. ",
" ..+@.##...@@@@@@@@.##...@+.. ",
" ..++.##...@@@@@@@@.##...++.. ",
" ..$+......@......@......+$.. ",
"  ..+$++++$@.####.@$++++$+..  ",
" ...$+@@@@@@......@@@@@@+$... ",
"..+..+@@@@@@+....+@@@@@@+..+..",
"..@..$+@@@@@@@@@@@@@@@@+$..@..",
"..@+..$+@@@@@@@@@@@@@@+$..+@..",
" ..+++.$+@@@@@@@@@@@@+$..++.. ",
"  .......$+@@@@@@@@+$.......  ",
"   ... ....$++++++$.... ...   ",
"      ..................      ",
"      ..+@@........@@+..      ",
"      ..+@@@.....+@@@+..      ",
"       ..@@@..  ..+@@..       ",
"        .....    .....        ",
"         ...      ...         "};
