/* XPM */
static char * C:\Users\Luis Fran\OneDrive\Escritorio\img\final1_xpm[] = {
"28 33 12 1",
" 	c None",
".	c #080000",
"+	c #CF9C9B",
"@	c #E3C6C5",
"#	c #FFFFFF",
"$	c #B97371",
"%	c #9CC8CC",
"&	c #9CC8CD",
"*	c #68989C",
"=	c #9DC9CD",
"-	c #67979C",
";	c #67979B",
"          ........          ",
"        ............        ",
"      ....++++++++....      ",
"     ...+@@@@@@@@@@+...     ",
"    ..+@@@@@@@@@@@@@@+..    ",
"   ..+@@@@@@@@@@@@@@@@+..   ",
"  ..+@@@@@@@@@@@@@@@@@@+..  ",
"  ..@@@@@@@@@@@@@@@@@@@@..  ",
" ..+@@@@@@@@@@@@@@@@@@@@+.. ",
" ..@@@@@@@@@@@@@@@@@@@@@@.. ",
"..+@@@@@@@@@@@@@@@@@@@@@@+..",
"..+@+....+@@@@@@@@+....+@+..",
"..+@.##...@@@@@@@@.##...@+..",
"..++.##...@@@@@@@@.##...++..",
"..$+......@@....@@......+$..",
" ..+......@......@......+.. ",
" ..$+....+@.####.@+....+$.. ",
"  ..+%%%+@@......@@+%%%+..  ",
"  ..$&&&@@@@@@@@@@@@&&&$..  ",
"   ..*%=@@@@@@@@@@@@%&-..   ",
"    ..-%+@@@@@@@@@@+%;..    ",
"     ...;...@@@@...-...     ",
"      .......++.......      ",
"       ..+@+....+@+..       ",
"      ..+@@@+..+@@@+..      ",
"      ..$+++$..$+++$..      ",
"       ..$+$....$+$..       ",
"        .....@@.....        ",
"        ....+..+....        ",
"        ..@@@..+@@..        ",
"        ...@@..+@...        ",
"         ..........         ",
"          ...  ...          "};
