/* XPM */
static char * C:\Users\Luis Fran\OneDrive\Escritorio\img\issac_espalda_xpm[] = {
"32 33 5 1",
" 	c #734136",
".	c #080000",
"+	c #CF9C9B",
"@	c #E3C6C5",
"#	c #B97371",

"          ............          ",
"        ....++++++++....        ",
"       ...+@@@@@@@@@@+...       ",
"      ..+@@@@@@@@@@@@@@+..      ",
"     ..+@@@@@@@@@@@@@@@@+..     ",
"    ..+@@@@@@@@@@@@@@@@@@+..    ",
"    ..@@@@@@@@@@@@@@@@@@@@..    ",
"   ..+@@@@@@@@@@@@@@@@@@@@+..   ",
"   ..@@@@@@@@@@@@@@@@@@@@@@..   ",
"  ..+@@@@@@@@@@@@@@@@@@@@@@+..  ",
"  ..+@@@@@@@@@@@@@@@@@@@@@@+..  ",
"  ..+@@@@@@@@@@@@@@@@@@@@@@+..  ",
"  ..+@@@@@@@@@@@@@@@@@@@@@@+..  ",
"  ..#+@@@@@@@@@@@@@@@@@@@@+#..  ",
"   ..+@@@@@@@@@@@@@@@@@@@@+..   ",
"   ..#+@@@@@@@@@@@@@@@@@@+#..   ",
"    ..+@@@@@@@@@@@@@@@@@@+..    ",
"    ..#+@@@@@@@@@@@@@@@@+#..    ",
"     ..#+@@@@@@@@@@@@@@+#..     ",
"      ..#++@@@@@@@@@@++#..      ",
"       ...#++@@@@@@++#...       ",
"        ....#++++++#....        ",
"          ............          ",
"         ..#........#..         ",
"        ..+@++++++++@+..        ",
"       ..+@@++++++++@@+..       ",
"       ..+@.+@@@@@@+.@+..       ",
"       ..+@.@@@@@@@@.@+..       ",
"        ....@@+..+@@....        ",
"         ...@@@..+@@...         ",
"          ...@@..+@...          ",
"           ..........           ",
"            ...  ...            "};
