/* XPM */
static char * C:\Users\Luis Fran\OneDrive\Escritorio\img\issac_derecha_xpm[] = {
"32 34 9 1",
" 	c #734136",
".	c #080000",
"+	c #CF9C9B",
"@	c #E3C6C5",
"#	c #FFFFFF",
"$	c #B97371",
"%	c #9CC8CC",
"&	c #9CC8CD",
"*	c #67979C",

"            ........            ",
"          ............          ",
"        ....++++++++....        ",
"       ...+@@@@@@@@@@+...       ",
"      ..+@@@@@@@@@@@@@@+..      ",
"     ..+@@@@@@@@@@@@@@@@+..     ",
"    ..+@@@@@@@@@@@@@@@@@@+..    ",
"    ..@@@@@@@@@@@@@@@@@@@@..    ",
"   ..+@@@@@@@@@@@@@@@@@@@@+..   ",
"   ..@@@@@@@@@@@@@@@@@@@@@@..   ",
"  ..+@@@@@@@@@@@+....+@@@@@+..  ",
"  ..+@@@@@@@@@@@.##...@@@@@+..  ",
"  ..+@@@@@@@@@@@.##...@@@@@+..  ",
"  ..+@@@@@@@@@@@......@@@+....  ",
"  ..$+@@@@@@@@@@......@@+.....  ",
"   ..+@@@@@@@@@@+....+@@.###..  ",
"   ..$+@@@@@@@@@@%%%%@@@......  ",
"    ..+@@@@@@@@@@%&&&@@@+++..   ",
"    ..$+@@@@@@@@@%%&&@@@@+$..   ",
"     ..$+@@@@@@@@%&&&@@@+$..    ",
"      ..$++@@@@@@&&&&@@+$..     ",
"       ...$+@@@@@&&&*+$...      ",
"        ....$++++***.....       ",
"         ..............         ",
"        ..$+..........          ",
"       ..++@@+++++++..          ",
"       ..+@@@+++++++..          ",
"       ..+@@.+@@@@@@..          ",
"       ...@.+@@@@@@+..          ",
"        .....++@@@@...          ",
"         .....+@@@.$..          ",
"            ..+++.$..           ",
"             .......            ",
"              .....             "};
