/* XPM */
static char * C:\Users\Luis Fran\OneDrive\Escritorio\img\like_xpm[] = {
"34 33 6 1",
" 	c  #734136",
".	c #080000",
"+	c #CF9C9B",
"@	c #E3C6C5",
"#	c #FFFFFF",
"$	c #B97371",

"          ........                ",
"        ............              ",
"      ....++++++++....            ",
"     ...+@@@@@@@@@@+...           ",
"    ..+@@@@@@@@@@@@@@+..          ",
"   ..+@@@@@@@@@@@@@@@@+......     ",
"  ..+@@@@@@@@@@@@@@@@@@+......    ",
"  ..@@@@@@@@@@@@@@@@@@@@..+@+..   ",
" ..+@@@@@@@@@@@@@@@@@@@@..@@@..   ",
" ..@@@@@@@@@@@@@@@@@@@@@.+@@@..   ",
"..+@@@@@@@@@@@@@@@@@@@@@.+@@@..   ",
"..+@+....+@@@@@@@@+....+.+@@+..   ",
"..+@.##...@@@@@@@@.##....++.....  ",
"..++.##...@@@@@@@@.##...$+....... ",
"..$+......@......@......++.+@@+.. ",
" ..+$++++$@.####.@$+++..+.+@@@@+..",
" ..$+@@@@@@......@@@@..++.@@@@@@..",
"  ..+@@@@@@+....+@@@...++$@@@@@@..",
"  ..$+@@@@@@@@@@@@@@.$.+++@@@@@@..",
"   ..$+@@@@@@@@@@@@..@@++++@@@@@..",
"    ..$+@@@@@@@@@@@.+@@++++@@@@@..",
"     ...$+@@@@@@@@+.++@.$+++++$...",
"      ....$++++++$..++@+..$++$... ",
"       .............$$++$.......  ",
"       ..+...........$$$.......   ",
"      ..+@@++++++++.......        ",
"      ..+@.+@@@@@@+......         ",
"      ..+@.@@@@@@@@...            ",
"       ....@@+..+@@..             ",
"        ...@@@..+@@..             ",
"         ...@@..+@...             ",
"          ..........              ",
"           ...  ...               ",};
