/* XPM */
static char * C:\Users\Luis Fran\OneDrive\Escritorio\img\pop_xpm[] = {
"32 32 8 1",
" 	c  #734136",
".	c #1B1216",
"+	c #4F2F27",
"@	c #59352C",
"#	c #3E2920",
"$	c #271916",
"%	c #643B31",
"&	c #8A5340",
"                                ",
"              .+                ",
"             .+.                ",
"            .+@+.               ",
"            .+++#...            ",
"           .$###$#++..          ",
"          .+#$$$#+@@++.         ",
"         .+@%%@%&&%@++.         ",
"        .+@%&&%%%%@+#$$.        ",
"        .+@@%%@@++#$$#++..      ",
"        .++++++##$$#+@%%++.     ",
"       .$$####$$$#+%@%&%@+.     ",
"      .++#$$$$#+@@%%+&%%@++.    ",
"     .++@%&%%%%@@&&%++@@+++.    ",
"     .+@@%%&&&%%@%%@+#++++#.    ",
"     .+@#@%%%%%@#@@@######$$.   ",
"     .####$####$$$##$$$$$$+#.   ",
"    .$$##$$$##$$$$$$#+@@%@++.   ",
"   .#+#$$$$$$$+@%%@&&%%@@@+##.  ",
"   .+@%&@%&&%@%&&%@%%%@@#++##.  ",
"   .+@@%@%%%%@%%%%+@@@+##+###.  ",
"   .$####+++###+++######$##$$.  ",
"    .$##$####$#######$#$$#$$.   ",
"     .$$$$##$$$#####$$$$$$$.    ",
"      ...$$$$$$$$$$$$$$$$..     ",
"        .....$$$$$$$$.....      ",
"            ..........          ",
"                                ",
"                                ",
"                                ",
"                                ",
"                                "};
